<svg width="691" height="335" viewBox="0 0 691 335" fill="none" xmlns="http://www.w3.org/2000/svg">
<path d="M658.39 29.1566V3.33984H626.506H592.97H562.014H528.476H497.519H463.984H433.028H399.49H368.533H332.417H298.881H267.922H234.387H203.43H169.893H138.936H105.401H74.4443H41.3153V29.1566H6.19727V58.777V85.3253V114.089V140.64V169.404V196.966H41.3153V224.934H74.4443H105.401H138.936H169.893H203.43H234.387H267.922H298.881H332.417H368.533H399.49H433.028H462.732V250.75H497.85V280.87H527.952V306.687H563.07V334.655H593.171V306.581V280.031V251.267V224.934H626.506H658.39V196.966H691V169.404V140.64V114.089V85.3253V58.777V29.1566H658.39Z" fill="#00FE00"/>
<path d="M652.193 25.8168V0H620.308H586.773H555.816H522.279H491.322H457.787H426.83H393.293H362.336H326.219H292.684H261.725H228.19H197.233H163.695H132.739H99.2035H68.247H35.1181V25.8168H0V55.4372V81.9854V110.75V137.3V166.064V193.626H35.1181V221.594H68.247H99.2035H132.739H163.695H197.233H228.19H261.725H292.684H326.219H362.336H393.293H426.83H456.535V247.411H491.653V277.53H521.754V303.347H556.873V331.315H586.974V303.241V276.691V247.927V221.594H620.308H652.193V193.626H684.803V166.064V137.3V110.75V81.9854V55.4372V25.8168H652.193Z" fill="url(#paint0_linear_2484_13575)"/>
<defs>
<linearGradient id="paint0_linear_2484_13575" x1="29.8203" y1="6.26093e-05" x2="790.367" y2="788.312" gradientUnits="userSpaceOnUse">
<stop stop-color="#1C1C1C"/>
<stop offset="1"/>
</linearGradient>
</defs>
</svg>
