<svg width="1132" height="185" viewBox="0 0 1132 185" fill="none" xmlns="http://www.w3.org/2000/svg">
<g filter="url(#filter0_d_2484_13594)">
<path d="M94.7 132.74V162H50.26C37.06 162 27.16 159.067 20.56 153.2C13.96 147.187 10.66 138.387 10.66 126.8V57.5C10.66 45.9133 13.96 37.1867 20.56 31.32C27.16 25.3067 37.06 22.3 50.26 22.3H94.7V51.56H46.74C44.6867 51.56 43.66 52.5867 43.66 54.64V129.66C43.66 131.713 44.6867 132.74 46.74 132.74H94.7ZM143.158 162H110.598V22.3L169.998 21.2C183.198 20.9067 193.245 23.9867 200.138 30.44C207.178 36.8933 210.698 45.9133 210.698 57.5V74.44C210.698 83.0933 208.278 90.7933 203.438 97.54C198.598 104.14 191.485 108.54 182.098 110.74V104.36C187.525 105.387 191.778 107.367 194.858 110.3C198.085 113.087 200.725 117.413 202.778 123.28L216.418 162H183.858L168.678 115.58C168.238 114.407 167.798 113.527 167.358 112.94C167.065 112.353 166.258 112.06 164.938 112.06H138.758L143.158 107V162ZM143.158 44.3V88.3L138.758 83.9H174.618C176.672 83.9 177.698 82.8733 177.698 80.82V52.66C177.698 50.6067 176.672 49.58 174.618 49.58H138.758L143.158 44.3ZM279.777 83.24L300.897 22.3H333.237L308.157 90.5C305.663 97.2467 303.243 102.38 300.897 105.9C298.697 109.273 295.543 111.547 291.437 112.72C287.477 113.893 281.61 114.48 273.837 114.48H273.177C265.55 114.48 259.537 113.747 255.137 112.28C250.737 110.813 247.217 108.32 244.577 104.8C242.083 101.28 239.737 96.44 237.537 90.28L213.337 22.3H247.437L268.117 83.24C268.703 85.1467 269.877 86.1 271.637 86.1H276.257C278.017 86.1 279.19 85.1467 279.777 83.24ZM289.017 162H256.457V94.24H289.017V162ZM374.657 162H342.097V22.3L400.837 21.2C414.037 20.9067 424.084 23.9867 430.977 30.44C438.017 36.8933 441.537 45.9133 441.537 57.5V78.62C441.537 85.5133 439.997 91.82 436.917 97.54C433.837 103.26 429.217 107.807 423.057 111.18C417.044 114.407 409.637 116.02 400.837 116.02H370.257L374.657 110.96V162ZM374.657 44.3V92.04L370.257 87.64H405.457C407.51 87.64 408.537 86.6133 408.537 84.56V52.66C408.537 50.6067 407.51 49.58 405.457 49.58H370.257L374.657 44.3ZM508.001 162H475.441V46.28L479.841 50.68H443.761V22.3H539.681V50.68H503.601L508.001 46.28V162ZM620.316 49.36H584.676C582.623 49.36 581.596 50.3867 581.596 52.44V131.86C581.596 133.913 582.623 134.94 584.676 134.94H620.316C622.369 134.94 623.396 133.913 623.396 131.86V52.44C623.396 50.3867 622.369 49.36 620.316 49.36ZM548.596 129V55.3C548.596 43.7133 551.896 34.9867 558.496 29.12C565.096 23.1067 574.996 20.1 588.196 20.1H616.796C629.996 20.1 639.896 23.1067 646.496 29.12C653.096 34.9867 656.396 43.7133 656.396 55.3V129C656.396 140.587 653.096 149.387 646.496 155.4C639.896 161.267 629.996 164.2 616.796 164.2H588.196C574.996 164.2 565.096 161.267 558.496 155.4C551.896 149.387 548.596 140.587 548.596 129ZM761.91 132.74V162H717.47C704.27 162 694.37 159.067 687.77 153.2C681.17 147.187 677.87 138.387 677.87 126.8V57.5C677.87 45.9133 681.17 37.1867 687.77 31.32C694.37 25.3067 704.27 22.3 717.47 22.3H761.91V51.56H713.95C711.897 51.56 710.87 52.5867 710.87 54.64V129.66C710.87 131.713 711.897 132.74 713.95 132.74H761.91ZM884.949 162H852.609L846.009 128.78L848.649 130.98H799.149L801.789 128.78L794.309 162H763.949L792.549 47.6C794.309 40.7067 796.289 35.3533 798.489 31.54C800.689 27.58 803.769 24.7933 807.729 23.18C811.689 21.5667 817.042 20.9067 823.789 21.2L855.469 22.3L884.949 162ZM819.169 53.32L807.289 105.24L805.529 103.04H843.149L841.389 105.24L830.609 50.24H822.249C821.222 50.24 820.489 50.46 820.049 50.9C819.755 51.34 819.462 52.1467 819.169 53.32ZM931.704 162H899.144V22.3L957.884 21.2C971.084 20.9067 981.13 23.9867 988.024 30.44C995.064 36.8933 998.584 45.9133 998.584 57.5V78.62C998.584 85.5133 997.044 91.82 993.964 97.54C990.884 103.26 986.264 107.807 980.104 111.18C974.09 114.407 966.684 116.02 957.884 116.02H927.304L931.704 110.96V162ZM931.704 44.3V92.04L927.304 87.64H962.504C964.557 87.64 965.584 86.6133 965.584 84.56V52.66C965.584 50.6067 964.557 49.58 962.504 49.58H927.304L931.704 44.3ZM1041.73 77.08H1061.31C1074.51 77.08 1084.55 80.38 1091.45 86.98C1098.49 93.4333 1102.01 102.453 1102.01 114.04V126.8C1102.01 138.387 1098.49 147.407 1091.45 153.86C1084.55 160.313 1074.51 163.393 1061.31 163.1L1009.17 162V133.62H1065.93C1067.98 133.62 1069.01 132.593 1069.01 130.54V109.64C1069.01 107.587 1067.98 106.56 1065.93 106.56H1046.35C1033.15 106.56 1023.03 103.333 1015.99 96.88C1009.09 90.28 1005.65 81.1867 1005.65 69.6V57.5C1005.65 45.9133 1009.09 36.8933 1015.99 30.44C1023.03 23.9867 1033.15 20.9067 1046.35 21.2L1096.73 22.3V50.68H1041.73C1039.67 50.68 1038.65 51.7067 1038.65 53.76V74C1038.65 76.0533 1039.67 77.08 1041.73 77.08Z" fill="url(#paint0_linear_2484_13594)"/>
</g>
<defs>
<filter id="filter0_d_2484_13594" x="0.659912" y="0.100098" width="1131.35" height="184.1" filterUnits="userSpaceOnUse" color-interpolation-filters="sRGB">
<feFlood flood-opacity="0" result="BackgroundImageFix"/>
<feColorMatrix in="SourceAlpha" type="matrix" values="0 0 0 0 0 0 0 0 0 0 0 0 0 0 0 0 0 0 127 0" result="hardAlpha"/>
<feOffset dx="10"/>
<feGaussianBlur stdDeviation="10"/>
<feComposite in2="hardAlpha" operator="out"/>
<feColorMatrix type="matrix" values="0 0 0 0 0 0 0 0 0 0 0 0 0 0 0 0 0 0 0.5 0"/>
<feBlend mode="normal" in2="BackgroundImageFix" result="effect1_dropShadow_2484_13594"/>
<feBlend mode="normal" in="SourceGraphic" in2="effect1_dropShadow_2484_13594" result="shape"/>
</filter>
<linearGradient id="paint0_linear_2484_13594" x1="44.2842" y1="29.7908" x2="981.633" y2="170.766" gradientUnits="userSpaceOnUse">
<stop stop-color="white"/>
<stop offset="1" stop-color="#D3D3D3"/>
</linearGradient>
</defs>
</svg>
