<svg width="140" height="48" viewBox="0 0 140 48" fill="none" xmlns="http://www.w3.org/2000/svg">
<g filter="url(#filter0_iii_1324_369)">
<path d="M9.47917 8L21.1458 0H140V12.5V48H0V15L9.47917 8Z" fill="url(#paint0_linear_1324_369)"/>
<path d="M37.5036 21.7102C37.4581 21.2519 37.263 20.8958 36.9183 20.642C36.5736 20.3883 36.1058 20.2614 35.5149 20.2614C35.1134 20.2614 34.7744 20.3182 34.4979 20.4318C34.2214 20.5417 34.0092 20.6951 33.8615 20.892C33.7176 21.089 33.6456 21.3125 33.6456 21.5625C33.638 21.7708 33.6816 21.9527 33.7763 22.108C33.8748 22.2633 34.0092 22.3977 34.1797 22.5114C34.3501 22.6212 34.5471 22.7178 34.7706 22.8011C34.9941 22.8807 35.2327 22.9489 35.4865 23.0057L36.532 23.2557C37.0395 23.3693 37.5054 23.5208 37.9297 23.7102C38.3539 23.8996 38.7214 24.1326 39.032 24.4091C39.3426 24.6856 39.5831 25.0114 39.7536 25.3864C39.9278 25.7614 40.0168 26.1913 40.0206 26.6761C40.0168 27.3883 39.835 28.0057 39.4751 28.5284C39.1191 29.0473 38.6039 29.4508 37.9297 29.7386C37.2592 30.0227 36.4505 30.1648 35.5036 30.1648C34.5642 30.1648 33.746 30.0208 33.049 29.733C32.3558 29.4451 31.8142 29.0189 31.424 28.4545C31.0376 27.8864 30.835 27.1837 30.8161 26.3466H33.1967C33.2232 26.7367 33.335 27.0625 33.532 27.3239C33.7327 27.5814 33.9998 27.7765 34.3331 27.9091C34.6702 28.0379 35.0509 28.1023 35.4751 28.1023C35.8918 28.1023 36.2536 28.0417 36.5604 27.9205C36.871 27.7992 37.1115 27.6307 37.282 27.4148C37.4524 27.1989 37.5376 26.9508 37.5376 26.6705C37.5376 26.4091 37.46 26.1894 37.3047 26.0114C37.1532 25.8333 36.9297 25.6818 36.6342 25.5568C36.3426 25.4318 35.9846 25.3182 35.5604 25.2159L34.2933 24.8977C33.3123 24.6591 32.5376 24.286 31.9695 23.7784C31.4013 23.2708 31.1191 22.5871 31.1229 21.7273C31.1191 21.0227 31.3066 20.4072 31.6854 19.8807C32.0679 19.3542 32.5926 18.9432 33.2592 18.6477C33.9259 18.3523 34.6835 18.2045 35.532 18.2045C36.3956 18.2045 37.1494 18.3523 37.7933 18.6477C38.4411 18.9432 38.9448 19.3542 39.3047 19.8807C39.6645 20.4072 39.8501 21.017 39.8615 21.7102H37.5036ZM46.6357 18.3636V30H44.1754V18.3636H46.6357ZM58.8757 22.125C58.7962 21.8485 58.6844 21.6042 58.5405 21.392C58.3965 21.1761 58.2204 20.9943 58.0121 20.8466C57.8075 20.6951 57.5727 20.5795 57.3075 20.5C57.0462 20.4205 56.7564 20.3807 56.4382 20.3807C55.8435 20.3807 55.3208 20.5284 54.87 20.8239C54.4231 21.1193 54.0746 21.5492 53.8246 22.1136C53.5746 22.6742 53.4496 23.3598 53.4496 24.1705C53.4496 24.9811 53.5727 25.6705 53.8189 26.2386C54.0651 26.8068 54.4136 27.2405 54.8643 27.5398C55.3151 27.8352 55.8473 27.983 56.4609 27.983C57.0178 27.983 57.4931 27.8845 57.8871 27.6875C58.2848 27.4867 58.5878 27.2045 58.7962 26.8409C59.0083 26.4773 59.1143 26.0473 59.1143 25.5511L59.6143 25.625H56.6143V23.7727H61.4837V25.2386C61.4837 26.2614 61.2678 27.1402 60.8359 27.875C60.4041 28.6061 59.8094 29.1705 59.0518 29.5682C58.2943 29.9621 57.4268 30.1591 56.4496 30.1591C55.3587 30.1591 54.4003 29.9186 53.5746 29.4375C52.7488 28.9527 52.1049 28.2652 51.6428 27.375C51.1844 26.4811 50.9553 25.4205 50.9553 24.1932C50.9553 23.25 51.0916 22.4091 51.3643 21.6705C51.6409 20.928 52.0272 20.2992 52.5234 19.7841C53.0196 19.2689 53.5973 18.8769 54.2564 18.608C54.9155 18.339 55.6295 18.2045 56.3984 18.2045C57.0575 18.2045 57.6712 18.3011 58.2393 18.4943C58.8075 18.6837 59.3113 18.9527 59.7507 19.3011C60.1939 19.6496 60.5556 20.0644 60.8359 20.5455C61.1162 21.0227 61.2962 21.5492 61.3757 22.125H58.8757ZM75.5646 18.3636V30H73.4396L68.3771 22.6761H68.2919V30H65.8317V18.3636H67.9908L73.0135 25.6818H73.1158V18.3636H75.5646ZM93.4879 18.3636H95.9482V25.9205C95.9482 26.7689 95.7455 27.5114 95.3402 28.1477C94.9387 28.7841 94.3762 29.2803 93.6527 29.6364C92.9292 29.9886 92.0864 30.1648 91.1243 30.1648C90.1584 30.1648 89.3137 29.9886 88.5902 29.6364C87.8667 29.2803 87.3042 28.7841 86.9027 28.1477C86.5012 27.5114 86.3004 26.7689 86.3004 25.9205V18.3636H88.7607V25.7102C88.7607 26.1534 88.8572 26.5473 89.0504 26.892C89.2474 27.2367 89.5239 27.5076 89.88 27.7045C90.236 27.9015 90.6508 28 91.1243 28C91.6016 28 92.0163 27.9015 92.3686 27.7045C92.7247 27.5076 92.9993 27.2367 93.1925 26.892C93.3894 26.5473 93.4879 26.1534 93.4879 25.7102V18.3636ZM100.472 30V18.3636H105.063C105.946 18.3636 106.698 18.5322 107.319 18.8693C107.94 19.2027 108.414 19.6667 108.739 20.2614C109.069 20.8523 109.234 21.5341 109.234 22.3068C109.234 23.0795 109.067 23.7614 108.734 24.3523C108.4 24.9432 107.917 25.4034 107.285 25.733C106.656 26.0625 105.895 26.2273 105.001 26.2273H102.075V24.2557H104.603C105.076 24.2557 105.467 24.1742 105.773 24.0114C106.084 23.8447 106.315 23.6155 106.467 23.3239C106.622 23.0284 106.7 22.6894 106.7 22.3068C106.7 21.9205 106.622 21.5833 106.467 21.2955C106.315 21.0038 106.084 20.7784 105.773 20.6193C105.463 20.4564 105.069 20.375 104.592 20.375H102.933V30H100.472Z" fill="white"/>
</g>
<defs>
<filter id="filter0_iii_1324_369" x="0" y="-2" width="140" height="52" filterUnits="userSpaceOnUse" color-interpolation-filters="sRGB">
<feFlood flood-opacity="0" result="BackgroundImageFix"/>
<feBlend mode="normal" in="SourceGraphic" in2="BackgroundImageFix" result="shape"/>
<feColorMatrix in="SourceAlpha" type="matrix" values="0 0 0 0 0 0 0 0 0 0 0 0 0 0 0 0 0 0 127 0" result="hardAlpha"/>
<feOffset dy="2"/>
<feGaussianBlur stdDeviation="5"/>
<feComposite in2="hardAlpha" operator="arithmetic" k2="-1" k3="1"/>
<feColorMatrix type="matrix" values="0 0 0 0 1 0 0 0 0 0.81 0 0 0 0 0.927284 0 0 0 1 0"/>
<feBlend mode="normal" in2="shape" result="effect1_innerShadow_1324_369"/>
<feColorMatrix in="SourceAlpha" type="matrix" values="0 0 0 0 0 0 0 0 0 0 0 0 0 0 0 0 0 0 127 0" result="hardAlpha"/>
<feOffset dy="2"/>
<feGaussianBlur stdDeviation="1.5"/>
<feComposite in2="hardAlpha" operator="arithmetic" k2="-1" k3="1"/>
<feColorMatrix type="matrix" values="0 0 0 0 1 0 0 0 0 0.811765 0 0 0 0 0.92549 0 0 0 1 0"/>
<feBlend mode="normal" in2="effect1_innerShadow_1324_369" result="effect2_innerShadow_1324_369"/>
<feColorMatrix in="SourceAlpha" type="matrix" values="0 0 0 0 0 0 0 0 0 0 0 0 0 0 0 0 0 0 127 0" result="hardAlpha"/>
<feOffset dy="-2"/>
<feGaussianBlur stdDeviation="2"/>
<feComposite in2="hardAlpha" operator="arithmetic" k2="-1" k3="1"/>
<feColorMatrix type="matrix" values="0 0 0 0 1 0 0 0 0 0.811765 0 0 0 0 0.92549 0 0 0 0.25 0"/>
<feBlend mode="normal" in2="effect2_innerShadow_1324_369" result="effect3_innerShadow_1324_369"/>
</filter>
<linearGradient id="paint0_linear_1324_369" x1="70" y1="0" x2="70" y2="48" gradientUnits="userSpaceOnUse">
<stop stop-color="#F00094"/>
<stop offset="1" stop-color="#5D0039"/>
</linearGradient>
</defs>
</svg>
