<svg width="120" height="40" viewBox="0 0 120 40" fill="none" xmlns="http://www.w3.org/2000/svg">
<path d="M36.6726 24V15.2727H38.5178V22.4787H42.2592V24H36.6726ZM53.6612 19.6364C53.6612 20.5881 53.4808 21.3977 53.12 22.0653C52.7621 22.733 52.2734 23.2429 51.6541 23.5952C51.0376 23.9446 50.3445 24.1193 49.5746 24.1193C48.799 24.1193 48.103 23.9432 47.4865 23.5909C46.87 23.2386 46.3828 22.7287 46.0249 22.0611C45.6669 21.3935 45.4879 20.5852 45.4879 19.6364C45.4879 18.6847 45.6669 17.875 46.0249 17.2074C46.3828 16.5398 46.87 16.0312 47.4865 15.6818C48.103 15.3295 48.799 15.1534 49.5746 15.1534C50.3445 15.1534 51.0376 15.3295 51.6541 15.6818C52.2734 16.0312 52.7621 16.5398 53.12 17.2074C53.4808 17.875 53.6612 18.6847 53.6612 19.6364ZM51.7905 19.6364C51.7905 19.0199 51.6982 18.5 51.5135 18.0767C51.3317 17.6534 51.0746 17.3324 50.7422 17.1136C50.4098 16.8949 50.0206 16.7855 49.5746 16.7855C49.1286 16.7855 48.7393 16.8949 48.407 17.1136C48.0746 17.3324 47.8161 17.6534 47.6314 18.0767C47.4496 18.5 47.3587 19.0199 47.3587 19.6364C47.3587 20.2528 47.4496 20.7727 47.6314 21.196C47.8161 21.6193 48.0746 21.9403 48.407 22.1591C48.7393 22.3778 49.1286 22.4872 49.5746 22.4872C50.0206 22.4872 50.4098 22.3778 50.7422 22.1591C51.0746 21.9403 51.3317 21.6193 51.5135 21.196C51.6982 20.7727 51.7905 20.2528 51.7905 19.6364ZM63.315 18.0938C63.2553 17.8864 63.1715 17.7031 63.0636 17.544C62.9556 17.3821 62.8235 17.2457 62.6673 17.1349C62.5138 17.0213 62.3377 16.9347 62.1388 16.875C61.9428 16.8153 61.7255 16.7855 61.4869 16.7855C61.0408 16.7855 60.6488 16.8963 60.3107 17.1179C59.9755 17.3395 59.7141 17.6619 59.5266 18.0852C59.3391 18.5057 59.2454 19.0199 59.2454 19.6278C59.2454 20.2358 59.3377 20.7528 59.5224 21.179C59.707 21.6051 59.9684 21.9304 60.3065 22.1548C60.6445 22.3764 61.0437 22.4872 61.5039 22.4872C61.9215 22.4872 62.2781 22.4134 62.5735 22.2656C62.8718 22.1151 63.0991 21.9034 63.2553 21.6307C63.4144 21.358 63.494 21.0355 63.494 20.6634L63.869 20.7188H61.619V19.3295H65.271V20.429C65.271 21.196 65.109 21.8551 64.7852 22.4062C64.4613 22.9545 64.0153 23.3778 63.4471 23.6761C62.8789 23.9716 62.2283 24.1193 61.4954 24.1193C60.6772 24.1193 59.9585 23.9389 59.3391 23.5781C58.7198 23.2145 58.2369 22.6989 57.8903 22.0312C57.5465 21.3608 57.3746 20.5653 57.3746 19.6449C57.3746 18.9375 57.4769 18.3068 57.6815 17.7528C57.8888 17.196 58.1786 16.7244 58.5508 16.3381C58.9229 15.9517 59.3562 15.6577 59.8505 15.456C60.3448 15.2543 60.8803 15.1534 61.457 15.1534C61.9513 15.1534 62.4116 15.2259 62.8377 15.3707C63.2638 15.5128 63.6417 15.7145 63.9712 15.9759C64.3036 16.2372 64.5749 16.5483 64.7852 16.9091C64.9954 17.267 65.1303 17.6619 65.19 18.0938H63.315ZM71.0021 15.2727V24H69.157V15.2727H71.0021ZM82.32 15.2727V24H80.7262L76.9293 18.5071H76.8654V24H75.0202V15.2727H76.6396L80.4066 20.7614H80.4833V15.2727H82.32Z" fill="white"/>
<path d="M8.69413 7.4891L18.4278 1H119V10.4167V39H1V13.0131L8.69413 7.4891Z" stroke="#F30096" stroke-width="2"/>
</svg>
