<svg width="140" height="48" viewBox="0 0 140 48" fill="none" xmlns="http://www.w3.org/2000/svg">
<g filter="url(#filter0_iii_1324_339)">
<path d="M9.47917 8L21.1458 0H140V12.5V48H0V15L9.47917 8Z" fill="url(#paint0_linear_1324_339)"/>
<path d="M41.2301 30V18.3636H43.6903V27.9716H48.679V30H41.2301ZM63.0483 24.1818C63.0483 25.4508 62.8078 26.5303 62.3267 27.4205C61.8494 28.3106 61.1979 28.9905 60.3722 29.4602C59.5502 29.9261 58.6259 30.1591 57.5994 30.1591C56.5653 30.1591 55.6373 29.9242 54.8153 29.4545C53.9934 28.9848 53.3438 28.3049 52.8665 27.4148C52.3892 26.5246 52.1506 25.447 52.1506 24.1818C52.1506 22.9129 52.3892 21.8333 52.8665 20.9432C53.3438 20.053 53.9934 19.375 54.8153 18.9091C55.6373 18.4394 56.5653 18.2045 57.5994 18.2045C58.6259 18.2045 59.5502 18.4394 60.3722 18.9091C61.1979 19.375 61.8494 20.053 62.3267 20.9432C62.8078 21.8333 63.0483 22.9129 63.0483 24.1818ZM60.554 24.1818C60.554 23.3598 60.4309 22.6667 60.1847 22.1023C59.9422 21.5379 59.5994 21.1098 59.1562 20.8182C58.7131 20.5265 58.1941 20.3807 57.5994 20.3807C57.0047 20.3807 56.4858 20.5265 56.0426 20.8182C55.5994 21.1098 55.2547 21.5379 55.0085 22.1023C54.7661 22.6667 54.6449 23.3598 54.6449 24.1818C54.6449 25.0038 54.7661 25.697 55.0085 26.2614C55.2547 26.8258 55.5994 27.2538 56.0426 27.5455C56.4858 27.8371 57.0047 27.983 57.5994 27.983C58.1941 27.983 58.7131 27.8371 59.1562 27.5455C59.5994 27.2538 59.9422 26.8258 60.1847 26.2614C60.4309 25.697 60.554 25.0038 60.554 24.1818ZM75.0866 22.125C75.0071 21.8485 74.8954 21.6042 74.7514 21.392C74.6075 21.1761 74.4313 20.9943 74.223 20.8466C74.0185 20.6951 73.7836 20.5795 73.5185 20.5C73.2571 20.4205 72.9673 20.3807 72.6491 20.3807C72.0545 20.3807 71.5317 20.5284 71.081 20.8239C70.634 21.1193 70.2855 21.5492 70.0355 22.1136C69.7855 22.6742 69.6605 23.3598 69.6605 24.1705C69.6605 24.9811 69.7836 25.6705 70.0298 26.2386C70.276 26.8068 70.6245 27.2405 71.0753 27.5398C71.526 27.8352 72.0582 27.983 72.6719 27.983C73.2287 27.983 73.7041 27.8845 74.098 27.6875C74.4957 27.4867 74.7988 27.2045 75.0071 26.8409C75.2192 26.4773 75.3253 26.0473 75.3253 25.5511L75.8253 25.625H72.8253V23.7727H77.6946V25.2386C77.6946 26.2614 77.4787 27.1402 77.0469 27.875C76.6151 28.6061 76.0204 29.1705 75.2628 29.5682C74.5052 29.9621 73.6378 30.1591 72.6605 30.1591C71.5696 30.1591 70.6113 29.9186 69.7855 29.4375C68.9598 28.9527 68.3158 28.2652 67.8537 27.375C67.3954 26.4811 67.1662 25.4205 67.1662 24.1932C67.1662 23.25 67.3026 22.4091 67.5753 21.6705C67.8518 20.928 68.2382 20.2992 68.7344 19.7841C69.2306 19.2689 69.8082 18.8769 70.4673 18.608C71.1264 18.339 71.8404 18.2045 72.6094 18.2045C73.2685 18.2045 73.8821 18.3011 74.4503 18.4943C75.0185 18.6837 75.5223 18.9527 75.9616 19.3011C76.4048 19.6496 76.7666 20.0644 77.0469 20.5455C77.3272 21.0227 77.5071 21.5492 77.5866 22.125H75.0866ZM84.5028 18.3636V30H82.0426V18.3636H84.5028ZM98.7599 18.3636V30H96.6349L91.5724 22.6761H91.4872V30H89.027V18.3636H91.1861L96.2088 25.6818H96.3111V18.3636H98.7599Z" fill="white"/>
</g>
<defs>
<filter id="filter0_iii_1324_339" x="0" y="-2" width="140" height="52" filterUnits="userSpaceOnUse" color-interpolation-filters="sRGB">
<feFlood flood-opacity="0" result="BackgroundImageFix"/>
<feBlend mode="normal" in="SourceGraphic" in2="BackgroundImageFix" result="shape"/>
<feColorMatrix in="SourceAlpha" type="matrix" values="0 0 0 0 0 0 0 0 0 0 0 0 0 0 0 0 0 0 127 0" result="hardAlpha"/>
<feOffset dy="2"/>
<feGaussianBlur stdDeviation="5"/>
<feComposite in2="hardAlpha" operator="arithmetic" k2="-1" k3="1"/>
<feColorMatrix type="matrix" values="0 0 0 0 1 0 0 0 0 0.81 0 0 0 0 0.927284 0 0 0 1 0"/>
<feBlend mode="normal" in2="shape" result="effect1_innerShadow_1324_339"/>
<feColorMatrix in="SourceAlpha" type="matrix" values="0 0 0 0 0 0 0 0 0 0 0 0 0 0 0 0 0 0 127 0" result="hardAlpha"/>
<feOffset dy="2"/>
<feGaussianBlur stdDeviation="1.5"/>
<feComposite in2="hardAlpha" operator="arithmetic" k2="-1" k3="1"/>
<feColorMatrix type="matrix" values="0 0 0 0 1 0 0 0 0 0.811765 0 0 0 0 0.92549 0 0 0 1 0"/>
<feBlend mode="normal" in2="effect1_innerShadow_1324_339" result="effect2_innerShadow_1324_339"/>
<feColorMatrix in="SourceAlpha" type="matrix" values="0 0 0 0 0 0 0 0 0 0 0 0 0 0 0 0 0 0 127 0" result="hardAlpha"/>
<feOffset dy="-2"/>
<feGaussianBlur stdDeviation="2"/>
<feComposite in2="hardAlpha" operator="arithmetic" k2="-1" k3="1"/>
<feColorMatrix type="matrix" values="0 0 0 0 1 0 0 0 0 0.811765 0 0 0 0 0.92549 0 0 0 0.25 0"/>
<feBlend mode="normal" in2="effect2_innerShadow_1324_339" result="effect3_innerShadow_1324_339"/>
</filter>
<linearGradient id="paint0_linear_1324_339" x1="70" y1="0" x2="70" y2="48" gradientUnits="userSpaceOnUse">
<stop stop-color="#F00094"/>
<stop offset="1" stop-color="#5D0039"/>
</linearGradient>
</defs>
</svg>
