<svg width="120" height="40" viewBox="0 0 120 40" fill="none" xmlns="http://www.w3.org/2000/svg">
<path d="M33.2527 17.7827C33.2186 17.4389 33.0723 17.1719 32.8137 16.9815C32.5552 16.7912 32.2044 16.696 31.7612 16.696C31.46 16.696 31.2058 16.7386 30.9984 16.8239C30.791 16.9062 30.6319 17.0213 30.5211 17.169C30.4132 17.3168 30.3592 17.4844 30.3592 17.6719C30.3535 17.8281 30.3862 17.9645 30.4572 18.081C30.5311 18.1974 30.6319 18.2983 30.7598 18.3835C30.8876 18.4659 31.0353 18.5384 31.2029 18.6009C31.3706 18.6605 31.5495 18.7116 31.7399 18.7543L32.524 18.9418C32.9047 19.027 33.2541 19.1406 33.5723 19.2827C33.8904 19.4247 34.166 19.5994 34.399 19.8068C34.6319 20.0142 34.8123 20.2585 34.9402 20.5398C35.0708 20.821 35.1376 21.1435 35.1404 21.5071C35.1376 22.0412 35.0012 22.5043 34.7314 22.8963C34.4643 23.2855 34.0779 23.5881 33.5723 23.804C33.0694 24.017 32.4629 24.1236 31.7527 24.1236C31.0481 24.1236 30.4345 24.0156 29.9118 23.7997C29.3919 23.5838 28.9856 23.2642 28.693 22.8409C28.4032 22.4148 28.2512 21.8878 28.237 21.2599H30.0225C30.0424 21.5526 30.1262 21.7969 30.274 21.9929C30.4245 22.1861 30.6248 22.3324 30.8748 22.4318C31.1277 22.5284 31.4132 22.5767 31.7314 22.5767C32.0439 22.5767 32.3152 22.5312 32.5453 22.4403C32.7782 22.3494 32.9586 22.223 33.0865 22.0611C33.2143 21.8991 33.2782 21.7131 33.2782 21.5028C33.2782 21.3068 33.22 21.142 33.1035 21.0085C32.9899 20.875 32.8223 20.7614 32.6007 20.6676C32.3819 20.5739 32.1135 20.4886 31.7953 20.4119L30.845 20.1733C30.1092 19.9943 29.5282 19.7145 29.1021 19.3338C28.676 18.9531 28.4643 18.4403 28.4672 17.7955C28.4643 17.267 28.6049 16.8054 28.889 16.4105C29.176 16.0156 29.5694 15.7074 30.0694 15.4858C30.5694 15.2642 31.1376 15.1534 31.774 15.1534C32.4217 15.1534 32.987 15.2642 33.47 15.4858C33.9558 15.7074 34.3336 16.0156 34.6035 16.4105C34.8734 16.8054 35.0126 17.2628 35.0211 17.7827H33.2527ZM40.7267 15.2727V24H38.8816V15.2727H40.7267ZM50.5318 18.0938C50.4721 17.8864 50.3883 17.7031 50.2804 17.544C50.1724 17.3821 50.0403 17.2457 49.8841 17.1349C49.7306 17.0213 49.5545 16.9347 49.3556 16.875C49.1596 16.8153 48.9423 16.7855 48.7037 16.7855C48.2576 16.7855 47.8656 16.8963 47.5275 17.1179C47.1923 17.3395 46.9309 17.6619 46.7434 18.0852C46.5559 18.5057 46.4622 19.0199 46.4622 19.6278C46.4622 20.2358 46.5545 20.7528 46.7392 21.179C46.9238 21.6051 47.1852 21.9304 47.5233 22.1548C47.8613 22.3764 48.2605 22.4872 48.7207 22.4872C49.1383 22.4872 49.4949 22.4134 49.7903 22.2656C50.0886 22.1151 50.3159 21.9034 50.4721 21.6307C50.6312 21.358 50.7108 21.0355 50.7108 20.6634L51.0858 20.7188H48.8358V19.3295H52.4877V20.429C52.4877 21.196 52.3258 21.8551 52.002 22.4062C51.6781 22.9545 51.2321 23.3778 50.6639 23.6761C50.0957 23.9716 49.4451 24.1193 48.7122 24.1193C47.894 24.1193 47.1752 23.9389 46.5559 23.5781C45.9366 23.2145 45.4537 22.6989 45.1071 22.0312C44.7633 21.3608 44.5914 20.5653 44.5914 19.6449C44.5914 18.9375 44.6937 18.3068 44.8983 17.7528C45.1056 17.196 45.3954 16.7244 45.7676 16.3381C46.1397 15.9517 46.573 15.6577 47.0673 15.456C47.5616 15.2543 48.0971 15.1534 48.6738 15.1534C49.1681 15.1534 49.6284 15.2259 50.0545 15.3707C50.4806 15.5128 50.8585 15.7145 51.188 15.9759C51.5204 16.2372 51.7917 16.5483 52.002 16.9091C52.2122 17.267 52.3471 17.6619 52.4068 18.0938H50.5318ZM63.6735 15.2727V24H62.0797L58.2828 18.5071H58.2189V24H56.3738V15.2727H57.9931L61.7601 20.7614H61.8368V15.2727H63.6735ZM78.3659 15.2727H80.2111V20.9403C80.2111 21.5767 80.0591 22.1335 79.7551 22.6108C79.454 23.0881 79.0321 23.4602 78.4895 23.7273C77.9469 23.9915 77.3148 24.1236 76.5932 24.1236C75.8688 24.1236 75.2353 23.9915 74.6926 23.7273C74.15 23.4602 73.7282 23.0881 73.427 22.6108C73.1259 22.1335 72.9753 21.5767 72.9753 20.9403V15.2727H74.8205V20.7827C74.8205 21.1151 74.8929 21.4105 75.0378 21.669C75.1855 21.9276 75.3929 22.1307 75.66 22.2784C75.927 22.4261 76.2381 22.5 76.5932 22.5C76.9512 22.5 77.2623 22.4261 77.5265 22.2784C77.7935 22.1307 77.9995 21.9276 78.1444 21.669C78.2921 21.4105 78.3659 21.1151 78.3659 20.7827V15.2727ZM84.2292 24V15.2727H87.6724C88.3343 15.2727 88.8983 15.3991 89.3642 15.652C89.8301 15.902 90.1852 16.25 90.4295 16.696C90.6767 17.1392 90.8002 17.6506 90.8002 18.2301C90.8002 18.8097 90.6752 19.321 90.4252 19.7642C90.1752 20.2074 89.813 20.5526 89.3386 20.7997C88.867 21.0469 88.296 21.1705 87.6255 21.1705H85.4309V19.6918H87.3272C87.6824 19.6918 87.975 19.6307 88.2051 19.5085C88.438 19.3835 88.6113 19.2116 88.725 18.9929C88.8414 18.7713 88.8997 18.517 88.8997 18.2301C88.8997 17.9403 88.8414 17.6875 88.725 17.4716C88.6113 17.2528 88.438 17.0838 88.2051 16.9645C87.9721 16.8423 87.6767 16.7812 87.3187 16.7812H86.0744V24H84.2292Z" fill="white"/>
<path d="M8.69413 7.4891L18.4278 1H119V10.4167V39H1V13.0131L8.69413 7.4891Z" stroke="#F30096" stroke-width="2"/>
</svg>
