<svg width="37" height="36" viewBox="0 0 37 36" fill="none" xmlns="http://www.w3.org/2000/svg">
<g id="General/Fill/Close">
<path id="Shape" fill-rule="evenodd" clip-rule="evenodd" d="M6.41451 5.92488C7.29647 5.04689 8.72622 5.04707 9.60796 5.92527L18.4419 14.7179L27.287 5.90929C28.1684 5.0308 29.5982 5.03016 30.4804 5.90785C31.3627 6.78554 31.3633 8.20921 30.4819 9.0877L21.6349 17.8982L30.5917 26.9118C31.4735 27.79 31.4733 29.2136 30.5913 30.0916C29.7094 30.9696 28.2796 30.9694 27.3979 30.0912L18.4429 21.0795L9.68313 30.0229C8.80168 30.9014 7.37192 30.902 6.48968 30.0243C5.60743 29.1466 5.60679 27.7229 6.48824 26.8445L15.2499 17.8992L6.41412 9.10472C5.53238 8.22653 5.53256 6.80286 6.41451 5.92488Z" fill="#F30096"/>
</g>
</svg>
