<svg width="36" height="36" viewBox="0 0 36 36" fill="none" xmlns="http://www.w3.org/2000/svg">
<path fill-rule="evenodd" clip-rule="evenodd" d="M5.91451 5.92488C6.79647 5.04689 8.22622 5.04707 9.10796 5.92527L17.9419 14.7179L26.787 5.90929C27.6684 5.0308 29.0982 5.03016 29.9804 5.90785C30.8627 6.78554 30.8633 8.20921 29.9819 9.0877L21.1349 17.8982L30.0917 26.9118C30.9735 27.79 30.9733 29.2136 30.0913 30.0916C29.2094 30.9696 27.7796 30.9694 26.8979 30.0912L17.9429 21.0795L9.18313 30.0229C8.30168 30.9014 6.87192 30.902 5.98968 30.0243C5.10743 29.1466 5.10679 27.7229 5.98824 26.8445L14.7499 17.8992L5.91412 9.10472C5.03238 8.22653 5.03256 6.80286 5.91451 5.92488Z" fill="#5DFF51"/>
</svg>
