<svg width="128" height="45" viewBox="0 0 128 45" fill="none" xmlns="http://www.w3.org/2000/svg">
<g clip-path="url(#clip0_2509_12292)">
<path d="M20.9729 26.3882H19.6689V18.6146H20.9729V26.3882ZM22.2768 17.3207V18.616H20.9729V17.3207H22.2768ZM22.2768 26.3882V27.6836H20.9729V26.3882H22.2768ZM23.5812 16.0254V17.3207H22.2768V16.0254H23.5812ZM23.5812 27.6836V28.9788H22.2768V27.6836H23.5812ZM24.8851 17.3207V18.616H23.5812V17.3207H24.8851ZM24.8851 26.3882V27.6836H23.5812V26.3882H24.8851ZM26.1885 21.2066H24.8851V18.616H26.1885V21.2066ZM26.1885 26.3882H24.8851V23.7976H26.1885V26.3882Z" fill="black"/>
<path d="M34.012 17.3207H30.0993V21.2075H34.012V22.5033H31.4037V23.7986H30.0998V28.9797H28.7959V16.0264H34.012V17.3207ZM32.7081 23.7976V25.0929H31.4037V23.7976H32.7081ZM34.012 25.0929V26.3882H32.7081V25.0929H34.012ZM35.3159 17.3192V18.6145H34.012V17.3192H35.3159ZM35.3159 19.9098V21.2051H34.012V19.9098H35.3159ZM35.3159 26.3867V27.682H34.012V26.3867H35.3159ZM36.6198 18.6131V19.9083H35.3159V18.6131H36.6198ZM36.6198 27.6806V28.9759H35.3159V27.6806H36.6198Z" fill="black"/>
<path d="M39.2266 19.9113H37.9226V16.0244H39.2266V19.9113ZM40.5305 22.5023H39.2266V19.9113H40.5305V22.5023ZM41.8348 28.9788H40.5305V22.5023H41.8348V28.9788ZM43.1388 22.5023H41.8348V19.9113H43.1388V22.5023ZM44.4427 19.9113H43.1388V16.0244H44.4427V19.9113Z" fill="black"/>
<path d="M52.2657 17.3207H48.353V21.2075H52.2657V22.5033H48.353V28.9797H47.0481V16.0264H52.2642L52.2657 17.3207ZM53.5696 17.3207V18.6159H52.2657V17.3207H53.5696ZM53.5696 19.9113V21.2065H52.2657V19.9113H53.5696ZM54.8735 18.6159V19.9113H53.5696V18.6159H54.8735Z" fill="black"/>
<path d="M54.8735 16.0254H64.0014V17.3207H60.0887V28.9788H58.7863V17.3207H54.8735V16.0254Z" fill="black"/>
<path d="M66.6072 26.3882H65.3037V18.6146H66.6072V26.3882ZM67.9111 17.3207V18.616H66.6072V17.3207H67.9111ZM67.9111 26.3882V27.6836H66.6072V26.3882H67.9111ZM69.2155 16.0254V17.3207H67.9111V16.0254H69.2155ZM69.2155 27.6836V28.9788H67.9111V27.6836H69.2155ZM70.5194 17.3207V18.616H69.2155V17.3207H70.5194ZM70.5194 26.3882V27.6836H69.2155V26.3882H70.5194ZM71.8233 26.3882H70.5194V18.6146H71.8233V26.3882Z" fill="black"/>
<path d="M75.7346 26.3882H74.4309V18.6146H75.7346V26.3882ZM77.0383 17.3207V18.616H75.7346V17.3207H77.0383ZM77.0383 26.3882V27.6836H75.7346V26.3882H77.0383ZM78.3427 16.0254V17.3207H77.0383V16.0254H78.3427ZM78.3427 27.6836V28.9788H77.0383V27.6836H78.3427ZM79.6464 17.3207V18.616H78.3427V17.3207H79.6464ZM79.6464 26.3882V27.6836H78.3427V26.3882H79.6464ZM80.95 21.2066H79.6464V18.616H80.95V21.2066ZM80.95 26.3882H79.6464V23.7976H80.95V26.3882Z" fill="black"/>
<path d="M84.8618 28.9788H83.5574V23.7976H84.8618V28.9788ZM86.1655 23.7976H84.8618V18.616H86.1655V23.7976ZM87.4691 18.616H86.1655V16.0254H87.4691V18.616ZM87.4691 26.3897H86.1655V23.7991H87.4691V26.3897ZM88.7728 23.7991H87.4691V18.6175H88.7728V23.7991ZM90.0772 28.9803H88.7728V23.7991H90.0772V28.9803Z" fill="black"/>
<path d="M97.9 17.3207H93.9875V21.2075H97.9V22.5033H93.9875V28.9797H92.6831V16.0264H97.8993L97.9 17.3207ZM99.2037 17.3207V18.6159H97.9V17.3207H99.2037ZM99.2037 19.9113V21.2065H97.9V19.9113H99.2037ZM100.508 18.6159V19.9113H99.2037V18.6159H100.508Z" fill="black"/>
<path d="M103.115 19.9113H101.811V17.3207H103.115V19.9113ZM103.115 26.3882H101.811V23.7976H103.115V26.3882ZM103.115 17.3207V16.0254H105.723V17.3207H103.115ZM103.115 19.9113H104.418V21.2066H103.114L103.115 19.9113ZM104.419 26.3882V27.6836H103.115V26.3882H104.419ZM104.418 21.2066H105.723V22.5024H104.418V21.2066ZM104.419 28.9803V27.685H107.027V28.9803H104.419ZM107.027 17.3222V18.6175H105.723V17.3222H107.027ZM105.723 22.5038H107.027V23.7991H105.723V22.5038ZM107.027 18.6175L108.331 18.6169V19.9123H107.027V18.6175ZM108.331 27.6845L107.027 27.685V23.7976H108.331V27.6845Z" fill="black"/>
<path d="M126.052 17.569V13.6958H124.059C124.059 13.1346 124.055 12.6021 124.059 12.0701C124.059 11.8806 124.029 11.7621 123.795 11.7616C122.581 11.7616 121.367 11.747 120.153 11.7383L120.144 13.6861H116.215V11.7392L120.146 11.73V9.78171H116.214L116.207 11.7295H110.305C110.305 11.0817 110.305 10.4326 110.305 9.78223C111.621 9.78223 112.938 9.78142 114.254 9.77979C114.905 9.77979 115.556 9.77544 116.207 9.77301V7.80769H112.238C112.238 7.24506 112.23 6.72277 112.241 6.20096C112.246 5.97553 112.162 5.8934 111.934 5.89291C109.421 5.88806 106.908 5.87931 104.396 5.86667L104.388 7.81499C103.525 7.81838 102.664 7.82569 101.802 7.82517C99.3829 7.82325 96.9649 7.81949 94.547 7.81396C94.5403 7.30628 94.5159 6.79759 94.5337 6.29035C94.5448 5.9726 94.4464 5.87348 94.1193 5.87446C91.7436 5.88175 89.3678 5.86718 86.9913 5.86378C83.6004 5.85924 80.2095 5.85713 76.8186 5.85745C76.812 5.37159 76.8046 4.88573 76.8001 4.39988C76.7964 3.93151 76.7979 3.93103 76.3392 3.93006C73.9615 3.9252 71.5838 3.9205 69.2059 3.91597C67.8038 3.91273 66.4017 3.90723 64.9997 3.89946C64.9961 3.25003 64.9928 2.6006 64.9899 1.95117C64.8652 1.95457 64.7404 1.95992 64.6157 1.95992L49.6942 1.97693C49.2368 1.97693 49.2354 1.97692 49.2354 2.44334C49.2354 2.92919 49.2388 3.41505 49.2408 3.9009H64.4729C64.6456 3.9009 64.8178 3.90673 64.9904 3.91013V5.86425L76.809 5.87057C76.809 6.37926 76.8201 6.88843 76.8016 7.39612C76.7912 7.69061 76.8763 7.80134 77.1959 7.8009C79.5495 7.79456 81.9031 7.8096 84.2559 7.81351C87.6838 7.81964 91.111 7.82436 94.5388 7.8276C94.5359 8.34702 94.5485 8.86733 94.5218 9.38571C94.5055 9.70396 94.6269 9.76614 94.9258 9.76614C98.0799 9.76371 101.236 9.77588 104.389 9.78414V11.7416H110.298V13.6982H116.206V15.6552H120.145V17.6127H122.11V19.5464H124.079V21.5089H126.023V23.4838H124.12V25.4666C123.563 25.4666 123.051 25.4793 122.54 25.4618C122.254 25.452 122.14 25.5409 122.151 25.8373C122.171 26.345 122.157 26.8547 122.157 27.4013H120.143V29.3403C118.955 29.352 117.767 29.37 116.579 29.3695C116.32 29.3695 116.227 29.4443 116.236 29.7072C116.253 30.2261 116.241 30.746 116.241 31.3105H112.268V33.2539H106.358V35.2109H98.4787V37.168C98.3419 37.168 98.2042 37.1714 98.0666 37.1719C93.7575 37.1832 89.4484 37.1921 85.1386 37.1986C84.796 37.1986 84.6925 37.303 84.7043 37.6358C84.7235 38.1314 84.6969 38.6285 84.6888 39.1255C84.5045 39.1255 84.3203 39.1318 84.1361 39.1318H64.9909V41.0805C62.3707 41.0825 59.7507 41.0846 57.1312 41.0869C52.5309 41.0888 47.9305 41.0901 43.3301 41.0908C43.3301 41.6111 43.3414 42.1315 43.3213 42.6513C43.3101 42.9482 43.4245 43.0284 43.7097 43.0206C44.3063 43.0045 44.904 43.0235 45.5012 43.0235C51.9976 43.0284 58.494 43.0327 64.9904 43.0366L65.0021 41.0908C68.7844 41.0878 72.5666 41.0848 76.3488 41.0816C78.9983 41.0791 81.6478 41.0684 84.2966 41.0777C84.6281 41.0777 84.7258 40.9747 84.7117 40.6608C84.6895 40.1526 84.6999 39.6405 84.6969 39.1333C84.87 39.1333 85.0424 39.1275 85.2148 39.1269L98.0067 39.1138C98.475 39.1138 98.4743 39.1138 98.4765 38.6333C98.4795 38.1528 98.4839 37.6616 98.4876 37.1757H106.367V35.2187H112.266V37.1621H108.338V39.1236C110.197 39.1153 112.053 39.1027 113.91 39.1036C114.172 39.1036 114.222 38.9928 114.217 38.7669C114.206 38.248 114.214 37.7286 114.214 37.1636H118.178V35.2201C116.394 35.2247 114.61 35.2286 112.826 35.2319C112.642 35.2319 112.459 35.2182 112.275 35.2109V33.2636H118.177C118.18 33.9131 118.183 34.5625 118.186 35.2119H122.107V33.2495H124.088V31.3061L120.154 31.2944C120.154 30.6467 120.154 29.9977 120.154 29.3476L123.619 29.3578H124.095V31.2984H126.075V29.3117H128V17.5671L126.052 17.569ZM122.111 15.6431H120.155C120.155 14.9933 120.155 14.344 120.155 13.6953H122.111V15.6431ZM110.295 9.77301H104.397C104.397 9.12515 104.397 8.4759 104.397 7.82517H110.298L110.295 9.77301ZM124.039 17.6016H122.123C122.123 16.9538 122.123 16.3052 122.123 15.6557H124.037L124.039 17.6016ZM118.188 33.2564V31.3085H120.141V33.2564H118.188Z" fill="black"/>
<path d="M120.155 11.7387V11.73H120.147V11.7387H120.155Z" fill="black"/>
<path d="M88.9289 41.0967C88.6795 41.0967 88.5989 41.1851 88.6055 41.4208C88.6166 41.8163 88.5967 42.2127 88.6115 42.6077C88.6218 42.8764 88.5249 42.9789 88.2482 42.9813C86.9615 42.9945 85.6749 43.0411 84.3882 43.0426C77.926 43.051 71.4636 43.0534 65.0005 43.0498V45.0001H65.4637C69.1572 45.0001 72.8507 45.0001 76.5439 45.0001C80.4246 44.9942 84.3053 44.9758 88.1845 44.9733C88.4968 44.9733 88.6366 44.9005 88.61 44.5647C88.5841 44.229 88.6041 43.8899 88.6041 43.5522C88.6041 43.045 88.6041 43.0459 89.1309 43.0445C92.7644 43.0338 96.3987 43.0252 100.033 43.0187C100.348 43.0187 100.439 42.9216 100.429 42.6189C100.413 42.1107 100.437 41.6014 100.445 41.0923C96.6074 41.0952 92.7681 41.0967 88.9289 41.0967Z" fill="black"/>
<path d="M80.7488 1.95552H80.7562C80.7569 1.95212 80.7569 1.94871 80.7562 1.94531L80.7488 1.95552Z" fill="black"/>
<path d="M104.385 5.85889V5.86812H104.395V5.85889H104.385Z" fill="black"/>
<path d="M103.937 3.92378C101.594 3.91795 99.2503 3.90482 96.9063 3.91405C96.5601 3.91405 96.4565 3.80862 96.4787 3.47678C96.5038 3.09441 96.4728 2.70816 96.4883 2.32481C96.4979 2.07023 96.4128 1.97258 96.1457 1.97744C95.5487 1.98764 94.9508 1.96675 94.353 1.96626C89.8212 1.9614 85.2887 1.9575 80.7562 1.95459C80.7525 2.46328 80.7606 2.97247 80.7362 3.48019C80.7214 3.79892 80.8301 3.8956 81.1557 3.89512C84.4141 3.88929 87.6726 3.89998 90.931 3.90532C91.5178 3.90532 92.1045 3.89852 92.692 3.90532C93.838 3.92281 94.9849 3.9539 96.1309 3.96653C96.4121 3.96944 96.4994 4.07925 96.4898 4.34453C96.4743 4.73954 96.495 5.13648 96.4824 5.53196C96.4757 5.76711 96.5505 5.85651 96.8028 5.85602C99.3309 5.84971 101.859 5.85602 104.387 5.85602V3.92086L103.937 3.92378Z" fill="black"/>
<path d="M43.3181 41.0825V41.0927L43.3274 41.0825H43.3181Z" fill="black"/>
<path d="M43.3265 39.5914C43.3422 39.2655 43.2512 39.1513 42.9001 39.1518C39.2564 39.1552 35.6127 39.1401 31.9684 39.1309C31.474 39.1309 31.4734 39.1309 31.4725 38.6372C31.4725 38.2646 31.4642 37.8919 31.4754 37.5198C31.4818 37.2982 31.4035 37.2069 31.1722 37.2064C28.0003 37.2005 24.8288 37.1913 21.6575 37.1787C21.6624 37.7107 21.6805 38.2432 21.6668 38.7752C21.6595 39.0391 21.7489 39.1114 22.0091 39.1099C23.0514 39.1027 24.0941 39.1197 25.1363 39.1236C26.472 39.1284 27.8083 39.1411 29.1435 39.1236C29.4927 39.1187 29.5905 39.2319 29.5685 39.5608C29.5431 39.9432 29.5743 40.3294 29.5587 40.7128C29.5484 40.9684 29.6365 41.0636 29.901 41.0593C30.4978 41.05 31.0954 41.0719 31.6926 41.0723C35.5681 41.0772 39.4435 41.0807 43.3187 41.083C43.3187 40.5855 43.3026 40.0876 43.3265 39.5914Z" fill="black"/>
<path d="M64.9878 43.0386V43.05L65.0007 43.05V43.0386H64.9878Z" fill="black"/>
<path d="M43.3181 41.0927H43.3274V41.0825L43.3181 41.0927Z" fill="black"/>
<path d="M80.7569 1.94531H80.748C80.748 1.94871 80.748 1.95212 80.748 1.95552L80.7569 1.94531Z" fill="black"/>
<path d="M80.742 0.454778C80.7568 0.119538 80.6444 0.0175079 80.3055 0.0175079C75.3372 0.0194514 70.369 0.0136039 65.4005 0H64.9995V1.94342H80.748C80.7465 1.44834 80.7213 0.950835 80.742 0.454778Z" fill="black"/>
<path d="M64.9977 1.95377V1.94434H64.9858L64.9918 1.94931L64.9977 1.95377Z" fill="black"/>
<path d="M49.239 3.91129V3.90186H49.228L49.2335 3.90634L49.239 3.91129Z" fill="black"/>
<path d="M64.9937 1.94931L64.9878 1.94434V1.95427H64.9997L64.9937 1.94931Z" fill="black"/>
<path d="M49.2289 5.50865C49.2196 4.9742 49.2289 4.44363 49.2289 3.91113C44.1004 3.91761 38.9716 3.92198 33.8427 3.92425C33.5493 3.92425 33.4543 4.00784 33.4666 4.29692C33.4881 4.81679 33.4773 5.33811 33.4798 5.85895C38.6211 5.84956 43.7624 5.84193 48.9037 5.8361C49.1511 5.8361 49.2328 5.74477 49.2289 5.50865Z" fill="black"/>
<path d="M49.2335 3.90634L49.228 3.90186V3.91129H49.239L49.2335 3.90634Z" fill="black"/>
<path d="M33.4788 5.85889H33.4685L33.4788 5.86812V5.85889Z" fill="black"/>
<path d="M17.7185 9.78217V9.77295H17.7092V9.78217H17.7185Z" fill="black"/>
<path d="M5.89863 15.644H5.89038V15.6523H5.89863V15.644Z" fill="black"/>
<path d="M9.79281 13.6909C9.95958 13.6909 10.0838 13.6909 10.208 13.6909C11.2732 13.6807 12.3385 13.6633 13.4037 13.6652C13.6615 13.6652 13.7579 13.5904 13.749 13.3251C13.7324 12.8145 13.7442 12.3048 13.7442 11.7471H17.7092V9.78027C15.838 9.78854 13.9662 9.79923 12.095 9.80071C11.8612 9.80071 11.8265 9.91247 11.8289 10.1038C11.8362 10.6354 11.8289 11.1669 11.8289 11.715C11.7027 11.7223 11.6234 11.73 11.5432 11.7305C10.4546 11.7412 9.36486 11.7631 8.27612 11.7533C7.96263 11.7509 7.86919 11.8433 7.88487 12.1493C7.90884 12.6546 7.89168 13.1624 7.89168 13.7041H5.89722V15.6446H9.79185L9.79281 13.6909Z" fill="black"/>
<path d="M118.177 35.2222H118.186V35.2134H118.177V35.2222Z" fill="black"/>
<path d="M33.4685 5.85889V5.86812H33.4788L33.4685 5.85889Z" fill="black"/>
<path d="M23.6274 7.82514V7.81592H23.6177V7.82514H23.6274Z" fill="black"/>
<path d="M33.4733 7.49868C33.4626 6.95502 33.4689 6.41184 33.4684 5.86816C30.2959 5.87594 27.1232 5.88208 23.9503 5.88662C23.6886 5.88662 23.6368 5.99059 23.6397 6.21894C23.6465 6.75095 23.6328 7.28345 23.6274 7.81596C26.8082 7.80918 29.9889 7.80364 33.1696 7.79944C33.4024 7.79944 33.4777 7.72264 33.4733 7.49868Z" fill="black"/>
<path d="M3.93158 27.3843H3.92065V27.3932H3.93108C3.93108 27.3902 3.93158 27.3872 3.93158 27.3843Z" fill="black"/>
<path d="M3.58278 23.5006C3.18515 23.5113 2.78605 23.4851 2.38989 23.5084C2.06171 23.5278 1.92869 23.4307 1.9458 23.0833C1.97221 22.5649 1.95118 22.0445 1.95019 21.5247C1.41513 21.5194 0.880078 21.5247 0.345997 21.5028C0.0598795 21.4907 -0.00419442 21.6034 0.000207377 21.8687C0.0173255 22.9147 0.0266133 23.9618 0.0075389 25.0077C0.00118078 25.345 0.120026 25.4246 0.432064 25.4105C0.928977 25.3882 1.42736 25.4047 1.96536 25.4047V27.3851H3.92171C3.91095 26.1928 3.89677 25 3.89286 23.8077C3.89138 23.5827 3.81265 23.4934 3.58278 23.5006Z" fill="black"/>
<path d="M124.087 31.3086H124.095V31.3003H124.087V31.3086Z" fill="black"/>
<path d="M100.448 41.0835V41.0922H100.457V41.0835H100.448Z" fill="black"/>
<path d="M100.456 41.0836C102.97 41.0748 105.482 41.0631 107.996 41.0622C108.255 41.0622 108.309 40.9573 108.308 40.7284C108.304 40.1974 108.321 39.6663 108.329 39.1357H100.455L100.456 41.0836Z" fill="black"/>
<path d="M108.331 39.1356H108.337V39.126H108.331V39.1356Z" fill="black"/>
<path d="M23.6177 7.8252H17.7183V9.77303H23.6177V7.8252Z" fill="black"/>
<path d="M15.7463 35.2217V37.1695H21.6467V35.2217H15.7463Z" fill="black"/>
<path d="M21.6482 37.1694V37.1787H21.6575V37.1694H21.6482Z" fill="black"/>
<path d="M3.92023 17.6089H1.95996V21.5142H3.92023V17.6089Z" fill="black"/>
<path d="M1.95998 21.5142H1.94971C1.94971 21.5176 1.94971 21.5209 1.94971 21.5239H1.9595L1.95998 21.5142Z" fill="black"/>
<path d="M7.86816 31.3076V33.2559H11.8V31.3076H7.86816Z" fill="black"/>
<path d="M11.8098 33.2559H11.8V33.2646H11.8098V33.2559Z" fill="black"/>
<path d="M116.216 9.78223V9.77295H116.206V9.78223H116.216Z" fill="black"/>
<path d="M15.7434 35.2238C15.747 35.2238 15.7498 35.221 15.7498 35.2173C15.7498 35.2138 15.747 35.2109 15.7434 35.2109C15.7399 35.2109 15.7371 35.2138 15.7371 35.2173C15.7371 35.221 15.7399 35.2238 15.7434 35.2238Z" fill="black"/>
<path d="M11.8098 33.2666V35.2149H15.7387V33.2666H11.8098Z" fill="black"/>
<path d="M5.90179 29.3418H5.89087V29.3502H5.90179V29.3418Z" fill="black"/>
<path d="M3.9311 27.3931C3.92082 27.9824 3.90371 28.5723 3.91007 29.1611C3.91007 29.2316 4.04067 29.3588 4.11207 29.3598C4.70485 29.3671 5.2981 29.3511 5.89087 29.3419L5.89088 27.3931H3.9311Z" fill="black"/>
<path d="M5.90161 29.3501V31.2993H7.85794V29.3501H5.90161Z" fill="black"/>
<path d="M7.85986 31.2993V31.3081H7.86867V31.2993H7.85986Z" fill="black"/>
<path d="M3.92901 17.6011H3.92017L3.92017 17.6093H3.92901V17.6011Z" fill="black"/>
<path d="M5.8902 15.6519L3.92847 15.6519V17.6012H5.8902V15.6519Z" fill="black"/>
</g>
<defs>
<clipPath id="clip0_2509_12292">
<rect width="128" height="45" fill="white"/>
</clipPath>
</defs>
</svg>
