<svg width="36" height="36" viewBox="0 0 36 36" fill="none" xmlns="http://www.w3.org/2000/svg">
<path d="M36 11.0773V24.9227C36 25.6571 35.7083 26.3614 35.1889 26.8807C34.6696 27.4 33.9653 27.6917 33.2309 27.6917H19.3851V34.6144C19.3853 34.8884 19.3042 35.1563 19.1521 35.3842C19 35.612 18.7837 35.7897 18.5305 35.8945C18.2774 35.9994 17.9989 36.0268 17.7301 35.9733C17.4614 35.9198 17.2146 35.7878 17.021 35.5939L0.406077 18.9796C0.277344 18.851 0.175219 18.6983 0.105542 18.5302C0.035864 18.3621 0 18.1819 0 18C0 17.8181 0.035864 17.6379 0.105542 17.4698C0.175219 17.3017 0.277344 17.149 0.406077 17.0204L17.021 0.406066C17.2146 0.212216 17.4614 0.0801764 17.7301 0.0266637C17.9989 -0.026849 18.2774 0.000571111 18.5305 0.105453C18.7837 0.210334 19 0.387962 19.1521 0.615847C19.3042 0.843732 19.3853 1.11163 19.3851 1.38562V8.30828H33.2309C33.9653 8.30828 34.6696 8.60002 35.1889 9.11932C35.7083 9.63862 36 10.3429 36 11.0773Z" fill="#F30096"/>
</svg>
